custom-analysis
version=1
nRows=5
nColumns=98
inDegrees=no

This file contains tibia displacement and acting force.

Units are S.I. units (seconds, meters, Newtons, ...)
Angles are in degrees.

endheader
time	APT	SIT	knee_angle	aACL_R_force	pACL_R_force	aPCL_R_force	pPCL_R_force	aMCL_R_force	mMCL_R_force	pMCL_R_force	aLCL_R_force	mLCL_R_force	pLCL_R_force	aPCL_L_force	pPCL_L_force	aMCL_L_force	aLCL_L_force	aACL_R_length	pACL_R_length	aPCL_R_length	pPCL_R_length	aMCL_R_length	mMCL_R_length	pMCL_R_length	aLCL_R_length	mLCL_R_length	pLCL_R_length	aPCL_L_length	pPCL_L_length	aMCL_L_length	aLCL_L_length	aACL_R_strain	pACL_R_strain	aPCL_R_strain	pPCL_R_strain	aMCL_R_strain	mMCL_R_strain	pMCL_R_strain	aLCL_R_strain	mLCL_R_strain	pLCL_R_strain	aPCL_L_strain	pPCL_L_strain	aMCL_L_strain	aLCL_L_strain	femur_lat_meniscii_r.femur_lat_r.force.X	femur_lat_meniscii_r.femur_lat_r.force.Y	femur_lat_meniscii_r.femur_lat_r.force.Z	femur_lat_meniscii_r.femur_lat_r.torque.X	femur_lat_meniscii_r.femur_lat_r.torque.Y	femur_lat_meniscii_r.femur_lat_r.torque.Z	femur_lat_meniscii_r.meniscus_lat_r.force.X	femur_lat_meniscii_r.meniscus_lat_r.force.Y	femur_lat_meniscii_r.meniscus_lat_r.force.Z	femur_lat_meniscii_r.meniscus_lat_r.torque.X	femur_lat_meniscii_r.meniscus_lat_r.torque.Y	femur_lat_meniscii_r.meniscus_lat_r.torque.Z	femur_med_meniscii_r.femur_med_r.force.X	femur_med_meniscii_r.femur_med_r.force.Y	femur_med_meniscii_r.femur_med_r.force.Z	femur_med_meniscii_r.femur_med_r.torque.X	femur_med_meniscii_r.femur_med_r.torque.Y	femur_med_meniscii_r.femur_med_r.torque.Z	femur_med_meniscii_r.meniscus_med_r.force.X	femur_med_meniscii_r.meniscus_med_r.force.Y	femur_med_meniscii_r.meniscus_med_r.force.Z	femur_med_meniscii_r.meniscus_med_r.torque.X	femur_med_meniscii_r.meniscus_med_r.torque.Y	femur_med_meniscii_r.meniscus_med_r.torque.Z	femur_med_tibia_r.tibia_upper_r.force.X	femur_med_tibia_r.tibia_upper_r.force.Y	femur_med_tibia_r.tibia_upper_r.force.Z	femur_med_tibia_r.tibia_upper_r.torque.X	femur_med_tibia_r.tibia_upper_r.torque.Y	femur_med_tibia_r.tibia_upper_r.torque.Z	femur_med_tibia_r.femur_med_r.force.X	femur_med_tibia_r.femur_med_r.force.Y	femur_med_tibia_r.femur_med_r.force.Z	femur_med_tibia_r.femur_med_r.torque.X	femur_med_tibia_r.femur_med_r.torque.Y	femur_med_tibia_r.femur_med_r.torque.Z	femur_lat_tibia_r.tibia_upper_r.force.X	femur_lat_tibia_r.tibia_upper_r.force.Y	femur_lat_tibia_r.tibia_upper_r.force.Z	femur_lat_tibia_r.tibia_upper_r.torque.X	femur_lat_tibia_r.tibia_upper_r.torque.Y	femur_lat_tibia_r.tibia_upper_r.torque.Z	femur_lat_tibia_r.femur_lat_r.force.X	femur_lat_tibia_r.femur_lat_r.force.Y	femur_lat_tibia_r.femur_lat_r.force.Z	femur_lat_tibia_r.femur_lat_r.torque.X	femur_lat_tibia_r.femur_lat_r.torque.Y	femur_lat_tibia_r.femur_lat_r.torque.Z	femur_lat_meniscii_force_r	femur_med_meniscii_force_r	femur_lat_tibia_force_r	femur_med_tibia_force_r
      0.20953551	      0.01353459	      0.02611032	     81.23143797	      1.07716650	      0.00000000	    962.37916043	    607.96361926	     24.47425686	     10.60485305	      0.00000000	      0.00000000	      0.00000000	      0.00000000	      0.00000000	      0.00000000	      0.00000001	      0.00000000	      0.03103906	      0.02442734	      0.03715495	      0.03394252	      0.06146163	      0.05990970	      0.05655736	      0.05017547	      0.04473845	      0.03973483	      0.01525851	      0.01651186	      0.06550154	      0.04489616	      0.00108252	     -0.02519523	      0.19487337	      0.13566459	      0.02389978	      0.00194335	     -0.03696099	     -0.10364458	     -0.20561863	     -0.24087166	      0.00000079	     -0.32847694	      0.00000060	     -0.00000086	    183.80278799	    110.19256832	      8.56486440	     -5.92865316	      4.25869527	     73.01729506	   -183.80278799	   -110.19256832	     -8.56486440	      2.83562749	     -4.96531792	      2.45048533	      0.03911275	      0.00109248	     -0.02459325	      0.00979331	     -0.00060891	      0.01554767	     -0.03911275	     -0.00109248	      0.02459325	     -0.00009232	      0.00117447	     -0.00009423	   -885.67606934	   -366.58953710	    313.99900945	     -8.28180522	     21.80654713	      2.27141662	    885.67606934	    366.58953710	   -313.99900945	    133.05143624	    -15.58288365	    356.92400404	   -288.61708070	   -129.67956131	    -77.69102012	      4.19766654	     -9.91532894	      0.95623826	    288.61708070	    129.67956131	     77.69102012	    -34.49979054	      7.06464921	    116.37244980	    214.47429657	      0.04621502	    325.81053160	   1008.66514089
      0.20970619	      0.01352829	      0.02614317	     81.32435505	      0.90793389	      0.00000000	    963.70117409	    608.97706657	     24.33492546	     10.52225258	      0.00000000	      0.00000000	      0.00000000	      0.00000000	      0.00000000	      0.00000000	      0.00000001	      0.00000000	      0.03103949	      0.02443240	      0.03716229	      0.03394839	      0.06146646	      0.05991217	      0.05656110	      0.05016619	      0.04472786	      0.03972568	      0.01525851	      0.01651186	      0.06550154	      0.04489616	      0.00109641	     -0.02499332	      0.19510953	      0.13586121	      0.02398028	      0.00198473	     -0.03689721	     -0.10381038	     -0.20580668	     -0.24104639	      0.00000079	     -0.32847694	      0.00000060	     -0.00000086	    183.15250441	    110.07743581	      8.79641769	     -6.02117320	      4.24590162	     72.74944615	   -183.15250441	   -110.07743581	     -8.79641769	      2.83677672	     -4.95816771	      2.46692473	      0.03784586	      0.00113933	     -0.02373611	      0.00945249	     -0.00058866	      0.01504280	     -0.03784586	     -0.00113933	      0.02373611	     -0.00008856	      0.00113447	     -0.00008636	   -886.28423089	   -365.62403735	    314.39229954	     -8.25461904	     21.82294197	      2.28315057	    886.28423089	    365.62403735	   -314.39229954	    133.18947299	    -15.58929534	    357.16255520	   -289.16903930	   -129.05415381	    -77.87837425	      4.18180294	     -9.93863197	      0.94317114	    289.16903930	    129.05415381	     77.87837425	    -34.56147149	      7.07872909	    116.59834155	    213.86738581	      0.04468791	    326.09622672	   1008.97135371
      0.20976316	      0.01352616	      0.02615413	     81.35536361	      0.84330009	      0.00000000	    964.14365704	    609.31991386	     24.28089293	     10.48905937	      0.00000000	      0.00000000	      0.00000000	      0.00000000	      0.00000000	      0.00000000	      0.00000001	      0.00000000	      0.03103962	      0.02443408	      0.03716474	      0.03395036	      0.06146807	      0.05991299	      0.05656235	      0.05016309	      0.04472433	      0.03972264	      0.01525851	      0.01651186	      0.06550154	      0.04489616	      0.00110048	     -0.02492642	      0.19518844	      0.13592700	      0.02400700	      0.00199846	     -0.03687591	     -0.10386568	     -0.20586933	     -0.24110447	      0.00000079	     -0.32847694	      0.00000060	     -0.00000086	    183.07322991	    110.22881990	      8.82581904	     -6.03646452	      4.24350986	     72.71350626	   -183.07322991	   -110.22881990	     -8.82581904	      2.84094205	     -4.95671464	      2.47842079	      0.03741186	      0.00115618	     -0.02344341	      0.00933612	     -0.00058173	      0.01486986	     -0.03741186	     -0.00115618	      0.02344341	     -0.00008731	      0.00112079	     -0.00008368	   -886.42739383	   -365.54581541	    314.61559659	     -8.24996865	     21.83122351	      2.29741521	    886.42739383	    365.54581541	   -314.61559659	    133.27688989	    -15.59158251	    357.21483987	   -289.25935732	   -129.15558363	    -77.94472269	      4.18382563	     -9.94434548	      0.95264145	    289.25935732	    129.15558363	     77.94472269	    -34.59008340	      7.08150665	    116.63128065	    213.87869302	      0.04416534	    326.23231044	   1009.13836580
      0.20977303	      0.01352579	      0.02615603	     81.36073799	      0.45439099	      0.00000000	    965.25701071	    612.23839947	     25.30184736	     11.76474359	      0.00000000	      0.00000000	      0.00000000	      0.00000000	      0.00000000	      0.00000000	      0.00000001	      0.00000000	      0.03103964	      0.02443437	      0.03716517	      0.03395070	      0.06146835	      0.05991314	      0.05656257	      0.05016255	      0.04472372	      0.03972211	      0.01525851	      0.01651186	      0.06550154	      0.04489616	      0.00110116	     -0.02491485	      0.19520212	      0.13593840	      0.02401162	      0.00200083	     -0.03687221	     -0.10387527	     -0.20588019	     -0.24111453	      0.00000079	     -0.32847694	      0.00000060	     -0.00000086	    178.13595539	    110.46022751	     10.12235926	     -6.56696489	      4.14244748	     70.71108060	   -178.13595539	   -110.46022751	    -10.12235926	      2.86071128	     -4.87810194	      2.54037840	      0.03610325	      0.00124958	     -0.02265711	      0.00902431	     -0.00056167	      0.01434855	     -0.03610325	     -0.00124958	      0.02265711	     -0.00008532	      0.00108281	     -0.00007587	   -884.54020616	   -367.93654126	    313.08024454	     -8.25431019	     21.75126531	      2.41731320	    884.54020616	    367.93654126	   -313.08024454	    132.68261940	    -15.54833263	    356.41761756	   -288.53424135	   -130.10079166	    -78.49486294	      4.21389989	     -9.94955755	      1.00243518	    288.53424135	    130.10079166	     78.49486294	    -34.83480017	      7.07351654	    116.32184693	    209.84838008	      0.04264213	    326.09763558	   1007.87296532
      0.20978290	      0.01352533	      0.02615787	     81.36609676	     -1.04047948	      0.00000000	    969.44830543	    623.61459009	     29.37257218	     16.83026810	      0.00000000	      0.00000000	      0.00000000	      0.00000000	      0.00000000	      0.00000000	      0.00000001	      0.00000000	      0.03103963	      0.02443465	      0.03716568	      0.03395114	      0.06146867	      0.05991333	      0.05656285	      0.05016208	      0.04472317	      0.03972167	      0.01525851	      0.01651186	      0.06550154	      0.04489616	      0.00110085	     -0.02490360	      0.19521869	      0.13595299	      0.02401699	      0.00200414	     -0.03686744	     -0.10388374	     -0.20588986	     -0.24112310	      0.00000079	     -0.32847694	      0.00000060	     -0.00000086	    158.64391687	    110.49152197	     14.85359746	     -8.48369481	      3.73862964	     62.81777479	   -158.64391687	   -110.49152197	    -14.85359746	      2.91156338	     -4.55221916	      2.74745289	      0.03106143	      0.00151731	     -0.01961700	      0.00781783	     -0.00048431	      0.01234092	     -0.03106143	     -0.00151731	      0.01961700	     -0.00007710	      0.00093604	     -0.00004937	   -876.74014125	   -376.99706648	    306.98684008	     -8.27072920	     21.43135318	      2.87093786	    876.74014125	    376.99706648	   -306.98684008	    130.31997874	    -15.37344906	    353.13549009	   -285.57706406	   -133.66320496	    -80.59268469	      4.32826546	     -9.96444385	      1.19015227	    285.57706406	    133.66320496	     80.59268469	    -35.76742785	      7.03901353	    115.06513964	    193.89919583	      0.03676875	    325.44629772	   1002.51732324
